<svg id="visual" viewBox="0 0 200 50" width="200" height="50" xmlns="http://www.w3.org/2000/svg" xmlns:xlink="http://www.w3.org/1999/xlink" version="1.1"><rect x="0" y="0" width="200" height="50" fill="#ab98b7"></rect><path d="M149 0L174 0L174 7L164 7L164 14L174 14L174 21L164 21L164 29L131 29L131 36L159 36L159 43L133 43L133 50L0 50L0 43L0 43L0 36L0 36L0 29L0 29L0 21L0 21L0 14L0 14L0 7L0 7L0 0L0 0Z" fill="#f5f3f6"></path><path d="M128 0L144 0L144 7L124 7L124 14L145 14L145 21L112 21L112 29L143 29L143 36L124 36L124 43L140 43L140 50L0 50L0 43L0 43L0 36L0 36L0 29L0 29L0 21L0 21L0 14L0 14L0 7L0 7L0 0L0 0Z" fill="#dfd6e4"></path><path d="M109 0L112 0L112 7L106 7L106 14L92 14L92 21L107 21L107 29L117 29L117 36L122 36L122 43L119 43L119 50L0 50L0 43L0 43L0 36L0 36L0 29L0 29L0 21L0 21L0 14L0 14L0 7L0 7L0 0L0 0Z" fill="#c9b9d2"></path><path d="M92 0L96 0L96 7L70 7L70 14L78 14L78 21L90 21L90 29L94 29L94 36L76 36L76 43L84 43L84 50L0 50L0 43L0 43L0 36L0 36L0 29L0 29L0 21L0 21L0 14L0 14L0 7L0 7L0 0L0 0Z" fill="#b39dc0"></path><path d="M46 0L45 0L45 7L59 7L59 14L56 14L56 21L68 21L68 29L66 29L66 36L52 36L52 43L49 43L49 50L0 50L0 43L0 43L0 36L0 36L0 29L0 29L0 21L0 21L0 14L0 14L0 7L0 7L0 0L0 0Z" fill="#9d82ae"></path><path d="M16 0L27 0L27 7L20 7L20 14L44 14L44 21L31 21L31 29L40 29L40 36L44 36L44 43L25 43L25 50L0 50L0 43L0 43L0 36L0 36L0 29L0 29L0 21L0 21L0 14L0 14L0 7L0 7L0 0L0 0Z" fill="#87679d"></path></svg>
