<svg width="48" height="48" viewBox="0 0 48 48" fill="none" xmlns="http://www.w3.org/2000/svg">
<rect x="16" y="2" width="28" height="4" rx="2" fill="black"/>
<rect x="16" y="41" width="28" height="4" rx="2" fill="black"/>
<rect x="16" y="28" width="28" height="4" rx="2" fill="black"/>
<rect x="16" y="15" width="28" height="4" rx="2" fill="#22D3EE"/>
<rect x="2" y="39" width="9" height="9" rx="2" fill="black"/>
<g clip-path="url(#clip0_2_51)">
<path d="M3.95453 41.7912L5.16833 43.005C5.44169 43.2784 5.44169 43.7216 5.16833 43.995L3.95453 45.2088C3.72349 45.4398 3.72349 45.8144 3.95453 46.0455C4.18558 46.2765 4.56019 46.2765 4.79123 46.0455L6.00502 44.8317C6.27839 44.5583 6.72161 44.5583 6.99497 44.8317L8.20877 46.0455C8.43981 46.2765 8.81442 46.2765 9.04546 46.0455C9.27651 45.8144 9.27651 45.4398 9.04546 45.2088L7.83167 43.995C7.55831 43.7216 7.55831 43.2784 7.83167 43.005L9.04546 41.7912C9.27651 41.5602 9.27651 41.1856 9.04546 40.9545C8.81442 40.7235 8.43981 40.7235 8.20877 40.9545L6.99498 42.1683C6.72161 42.4417 6.27839 42.4417 6.00503 42.1683L4.79123 40.9545C4.56019 40.7235 4.18558 40.7235 3.95453 40.9545C3.72349 41.1856 3.72349 41.5602 3.95453 41.7912Z" fill="white" stroke="white" stroke-width="0.6"/>
</g>
<rect x="2" y="26" width="9" height="9" rx="2" fill="black"/>
<g clip-path="url(#clip1_2_51)">
<path d="M3.95453 28.7912L5.16833 30.005C5.44169 30.2784 5.44169 30.7216 5.16833 30.995L3.95453 32.2088C3.72349 32.4398 3.72349 32.8144 3.95453 33.0455C4.18558 33.2765 4.56019 33.2765 4.79123 33.0455L6.00502 31.8317C6.27839 31.5583 6.72161 31.5583 6.99497 31.8317L8.20877 33.0455C8.43981 33.2765 8.81442 33.2765 9.04546 33.0455C9.27651 32.8144 9.27651 32.4398 9.04546 32.2088L7.83167 30.995C7.55831 30.7216 7.55831 30.2784 7.83167 30.005L9.04546 28.7912C9.27651 28.5602 9.27651 28.1856 9.04546 27.9545C8.81442 27.7235 8.43981 27.7235 8.20877 27.9545L6.99498 29.1683C6.72161 29.4417 6.27839 29.4417 6.00503 29.1683L4.79123 27.9545C4.56019 27.7235 4.18558 27.7235 3.95453 27.9545C3.72349 28.1856 3.72349 28.5602 3.95453 28.7912Z" fill="white" stroke="white" stroke-width="0.6"/>
</g>
<rect x="2" y="13" width="9" height="9" rx="2" fill="#22D3EE"/>
<path d="M4.89334 19.8567L4.89328 19.8567L4.8981 19.8613C5.16484 20.1165 5.58516 20.1165 5.8519 19.8613L5.85195 19.8614L5.85666 19.8567L9.71213 16.0012C9.97815 15.7352 9.97815 15.3039 9.71213 15.0379C9.44612 14.7719 9.01482 14.7719 8.74881 15.0379L5.86998 17.9167C5.59661 18.1901 5.15339 18.1901 4.88003 17.9167L4.25119 17.2879C3.98518 17.0219 3.55388 17.0219 3.28787 17.2879C3.02185 17.5539 3.02185 17.9852 3.28787 18.2512L4.89334 19.8567Z" fill="white" stroke="white" stroke-width="0.6"/>
<rect x="2" width="9" height="9" rx="2" fill="black"/>
<g clip-path="url(#clip2_2_51)">
<path d="M3.95453 2.79123L5.16833 4.00502C5.44169 4.27839 5.44169 4.72161 5.16833 4.99497L3.95453 6.20877C3.72349 6.43981 3.72349 6.81442 3.95453 7.04546C4.18558 7.27651 4.56019 7.27651 4.79123 7.04546L6.00502 5.83167C6.27839 5.55831 6.72161 5.55831 6.99497 5.83167L8.20877 7.04546C8.43981 7.27651 8.81442 7.27651 9.04546 7.04546C9.27651 6.81442 9.27651 6.43981 9.04546 6.20877L7.83167 4.99498C7.55831 4.72161 7.55831 4.27839 7.83167 4.00503L9.04546 2.79123C9.27651 2.56019 9.27651 2.18558 9.04546 1.95453C8.81442 1.72349 8.43981 1.72349 8.20877 1.95453L6.99498 3.16833C6.72161 3.44169 6.27839 3.44169 6.00503 3.16833L4.79123 1.95453C4.56019 1.72349 4.18558 1.72349 3.95453 1.95453C3.72349 2.18558 3.72349 2.56019 3.95453 2.79123Z" fill="white" stroke="white" stroke-width="0.6"/>
</g>
<defs>
<clipPath id="clip0_2_51">
<rect width="7" height="7" fill="white" transform="translate(3 40)"/>
</clipPath>
<clipPath id="clip1_2_51">
<rect width="7" height="7" fill="white" transform="translate(3 27)"/>
</clipPath>
<clipPath id="clip2_2_51">
<rect width="7" height="7" fill="white" transform="translate(3 1)"/>
</clipPath>
</defs>
</svg>
